<svg width="300" height="300" viewBox="0 0 551 267" fill="none" xmlns="http://www.w3.org/2000/svg">
<path fill-rule="evenodd" clip-rule="evenodd" d="M551 140.176C547.524 210.803 489.168 267 417.687 267C343.972 267 284.212 207.229 284.212 133.499C284.212 59.769 343.972 0 417.687 0C486.9 0 543.808 52.6889 550.506 120.151H489.889C483.613 85.9722 453.674 60.0757 417.689 60.0757C377.144 60.0757 344.276 92.9486 344.276 133.499C344.276 174.052 377.144 206.925 417.689 206.925C448.816 206.925 475.416 187.549 486.095 160.201H384.32V140.176H551ZM43.9296 232.504C96.3218 279.985 177.314 278.45 227.858 227.899C279.983 175.763 279.983 91.2372 227.858 39.1014C175.732 -13.0328 91.22 -13.0328 39.0943 39.1014C-9.84622 88.0512 -12.8367 165.554 30.1224 217.994L72.9838 175.125C53.2597 146.519 56.1206 107.032 81.5664 81.5821C110.235 52.9077 156.717 52.9077 185.387 81.5821C214.055 110.257 214.055 156.746 185.387 185.421C163.377 207.435 130.868 212.548 103.981 200.76L175.948 128.78L161.791 114.622L86.4966 189.928L43.9296 232.504Z" fill="#141414"/>
</svg>
