<svg width="300" height="300" viewBox="0 0 300 300" fill="none" xmlns="http://www.w3.org/2000/svg">
<mask id="mask0_6138_615" style="mask-type:alpha" maskUnits="userSpaceOnUse" x="25" y="86" width="246" height="121">
<path d="M126.817 188.82C104.397 211.239 68.4709 211.92 45.2311 190.862L64.1127 171.98L97.5114 138.582L103.791 144.861L71.8683 176.784C83.7947 182.012 98.2146 179.744 107.978 169.981C120.694 157.264 120.694 136.646 107.978 123.929C95.2608 111.212 74.6426 111.212 61.9258 123.929C50.6387 135.216 49.3697 152.728 58.1188 165.415L39.1066 184.427C20.0511 161.17 21.3776 126.798 43.0863 105.089C66.2079 81.9677 103.695 81.9677 126.817 105.089C149.938 128.211 149.938 165.698 126.817 188.82Z" fill="#FF3CD4"/>
<path d="M211.019 204.427C242.726 204.427 268.611 179.504 270.153 148.181H196.218V157.062H241.363C236.626 169.191 224.827 177.784 211.02 177.784C193.035 177.784 178.456 163.205 178.456 145.22C178.456 127.236 193.035 112.657 211.02 112.657C226.982 112.657 240.262 124.142 243.046 139.3H269.934C266.963 109.381 241.72 86.0137 211.019 86.0137C178.321 86.0137 151.813 112.521 151.813 145.22C151.813 177.919 178.321 204.427 211.019 204.427Z" fill="#FF3CD4"/>
</mask>
<g mask="url(#mask0_6138_615)">
<path d="M22 84H280V208H22V84Z" fill="#FDFDFD"/>
</g>
</svg>
