<svg width="32" height="32" viewBox="0 0 32 32" fill="none" xmlns="http://www.w3.org/2000/svg">
<rect width="32" height="32" fill="white"/>
<path d="M4.42238 20.2717C2.39387 17.8007 2.53515 14.1489 4.84567 11.8422C7.30712 9.38594 11.2972 9.38594 13.7586 11.8422C16.2195 14.299 16.2195 18.2815 13.7586 20.7383C11.3721 23.1204 7.5477 23.1923 5.07434 20.9552L10.639 15.4005L11.3074 16.0677L7.90972 19.4595C9.17902 20.0151 10.7139 19.7738 11.7528 18.7369C13.1067 17.3856 13.1067 15.1949 11.7528 13.8442C10.3995 12.4929 8.20477 12.4929 6.85092 13.8442C5.6497 15.0432 5.51465 16.9036 6.44578 18.2515L4.42238 20.2717Z" fill="#B75FFF"/>
<path d="M21.1532 17.5418V16.6011H29C28.8406 19.8298 26.2355 22.4163 22.995 22.5534C19.2858 22.7108 16.2365 19.6186 16.451 15.9192C16.6417 12.6271 19.4651 10.0156 22.7238 10.0156C25.9825 10.0156 28.6613 12.4911 28.9767 15.6604H26.1226C25.8276 14.0548 24.4181 12.8383 22.7238 12.8383C20.5898 12.8383 18.9074 14.769 19.3346 16.9766C19.5991 18.3409 20.6754 19.4119 22.0435 19.6724C23.7917 20.0048 25.3651 19.0217 25.9445 17.5418H21.1532Z" fill="#B75FFF"/>
</svg>
